<?xml version="1.0" encoding="utf-8"?>
<!-- Generator: Adobe Illustrator 27.0.0, SVG Export Plug-In . SVG Version: 6.00 Build 0)  -->
<svg version="1.1" id="Layer_1" xmlns="http://www.w3.org/2000/svg" xmlns:xlink="http://www.w3.org/1999/xlink" x="0px" y="0px"
	 viewBox="0 0 750 128" style="enable-background:new 0 0 750 128;" xml:space="preserve">
<style type="text/css">
	.st0{fill:#2F2F2F;}
	.st1{fill:#FFFFFF;}
	.st2{font-family:'HFMonorita-Bold';}
	.st3{font-size:25px;}
	.st4{letter-spacing:2;}
</style>
<rect class="st0" width="750" height="128"/>
<text transform="matrix(1 0 0 1 298.0632 107.0427)" class="st1 st2 st3 st4">WareHouse</text>
<g>
	<g>
		<path class="st1" d="M352.85,39.35c-0.32,0-0.64-0.07-0.94-0.23c-1-0.52-1.39-1.75-0.87-2.74l12.64-24.34
			c0.52-1,1.74-1.39,2.74-0.87c1,0.52,1.39,1.74,0.87,2.74l-12.64,24.34C354.29,38.95,353.58,39.35,352.85,39.35z"/>
		<path class="st1" d="M405.32,33.5h-5.12l1.08,2.07c0.96,1.85,0.24,4.13-1.61,5.09c-0.54,0.28-1.14,0.43-1.74,0.43
			c-1.42,0-2.7-0.78-3.35-2.04l-2.88-5.55h-32.61l-2.88,5.55c-0.65,1.26-1.94,2.04-3.35,2.04c-0.6,0-1.2-0.15-1.74-0.43
			c-1.85-0.96-2.57-3.24-1.61-5.09l1.08-2.07h-5.89c-2.39,0-4.33,1.94-4.33,4.33v4.33c0,2.39,1.94,4.33,4.33,4.33l4.33,25.99h51.98
			l4.33-25.99c2.39,0,4.33-1.94,4.33-4.33v-4.33C409.65,35.44,407.71,33.5,405.32,33.5z M359.84,65.98c0,1.2-0.97,2.17-2.17,2.17
			c-1.2,0-2.17-0.97-2.17-2.17V52.99c0-1.2,0.97-2.17,2.17-2.17c1.2,0,2.17,0.97,2.17,2.17V65.98z M368.5,65.98
			c0,1.2-0.97,2.17-2.17,2.17c-1.2,0-2.17-0.97-2.17-2.17V52.99c0-1.2,0.97-2.17,2.17-2.17c1.2,0,2.17,0.97,2.17,2.17V65.98z
			 M377.17,65.98c0,1.2-0.97,2.17-2.17,2.17c-1.2,0-2.17-0.97-2.17-2.17V52.99c0-1.2,0.97-2.17,2.17-2.17c1.2,0,2.17,0.97,2.17,2.17
			V65.98z M385.83,65.98c0,1.2-0.97,2.17-2.17,2.17c-1.2,0-2.17-0.97-2.17-2.17V52.99c0-1.2,0.97-2.17,2.17-2.17
			c1.2,0,2.17,0.97,2.17,2.17V65.98z M394.49,65.98c0,1.2-0.97,2.17-2.16,2.17c-1.2,0-2.17-0.97-2.17-2.17V52.99
			c0-1.2,0.97-2.17,2.17-2.17c1.2,0,2.16,0.97,2.16,2.17V65.98z"/>
		<g>
			<g>
				<path class="st1" d="M397.93,39.35c0.32,0,0.64-0.07,0.94-0.23c1-0.52,1.38-1.75,0.87-2.74l-12.64-24.34
					c-0.52-1-1.75-1.39-2.74-0.87c-1,0.52-1.38,1.74-0.87,2.74l12.64,24.34C396.48,38.95,397.19,39.35,397.93,39.35z"/>
			</g>
		</g>
	</g>
</g>
</svg>
